<svg xmlns="http://www.w3.org/2000/svg" viewBox="0 0 480 640" width="480" height="640">
  <rect width="480" height="640" fill="#ede7f6"/>
  <g fill="#4527a0" opacity=".12">
    <path d="M170 120 L100 170 L130 185 L120 340 L360 340 L350 185 L380 170 L310 120 Q290 155 240 155 Q190 155 170 120Z"/>
  </g>
  <g fill="none" stroke="#4527a0" stroke-width="2.5" opacity=".38">
    <path d="M170 120 L100 170 L130 185 L120 340 L360 340 L350 185 L380 170 L310 120 Q290 155 240 155 Q190 155 170 120Z"/>
  </g>
  <rect x="40" y="520" width="400" height="80" rx="6" fill="rgba(0,0,0,.04)"/>
  <text x="240" y="554" text-anchor="middle" font-family="Montserrat,Arial" font-size="13" font-weight="700" fill="#4527a0" letter-spacing="1">GRAPHIC T-SHIRT</text>
  <text x="240" y="574" text-anchor="middle" font-family="Montserrat,Arial" font-size="11" fill="#888">BRAND A</text>
</svg>
